<?xml version="1.0" encoding="UTF-8"?>
<svg id="Layer_1" data-name="Layer 1" xmlns="http://www.w3.org/2000/svg" viewBox="0 0 748.4 183.61">
  <defs>
    <style>
      .cls-1 {
        fill: #00a1e4;
      }

      .cls-2 {
        fill: #001522;
      }
    </style>
  </defs>
  <g>
    <path class="cls-1" d="M117.38,77.22c4.22-.02,7.91-1.91,10.55-4.64,2.65-2.73,4.41-6.45,4.41-10.6-.17-8.21-6.7-14.85-15.05-15.03-8.18.04-15.21,6.48-15.3,15.03.11,8.5,7.02,15.17,15.4,15.24Z"/>
    <path class="cls-1" d="M117.28,107.19c-8.18.04-15.21,6.48-15.3,15.04.11,8.51,7.02,15.17,15.4,15.25,4.22-.02,7.91-1.91,10.55-4.64,2.65-2.75,4.41-6.45,4.41-10.61-.17-8.21-6.7-14.85-15.05-15.04Z"/>
    <path class="cls-1" d="M71.88,77.22c4.22-.02,7.91-1.91,10.55-4.64,2.64-2.73,4.4-6.45,4.4-10.6-.16-8.21-6.7-14.85-15.05-15.03-8.18.04-15.21,6.48-15.31,15.03.11,8.5,7.02,15.17,15.4,15.24Z"/>
    <path class="cls-1" d="M71.79,107.19c-8.18.04-15.21,6.48-15.31,15.04.11,8.51,7.02,15.17,15.4,15.25,4.22-.02,7.91-1.91,10.55-4.64,2.64-2.75,4.4-6.45,4.4-10.61-.16-8.21-6.7-14.85-15.05-15.04Z"/>
    <path class="cls-2" d="M77.96,7.99c-30.93,9.34-38.39,35.49-47.14,62.84-9.34,29.29-15.55,55.32,2.77,75.99l-5.26,4.71C.72,123.84-5.44,93.55,4.38,62.82,16.39,25.17,42.48,6.5,76.25,0l1.71,7.99Z"/>
    <path class="cls-2" d="M157.99,32.38c23.79,24.7,34.21,54.94,22.19,92.59-9.83,30.73-32.44,51.9-71.05,58.64l-1.57-6.87c26.96-6.36,37.03-31.16,46.38-60.44,8.75-27.35,17.83-52.99-1.96-78.41l6.01-5.52Z"/>
  </g>
  <g>
    <path class="cls-2" d="M298.86,17.49l.4,1.29.66,2.1,41.73,134.34,1.15,3.67.73,2.39h-38.38l-.41-1.33-.58-2.17-5.46-20.11h-41.95l-6.26,20.21-1.05,3.42h-38.36l1.91-6.07L255.34,20.86l.64-2.08.44-1.29h42.45ZM265.19,108.95h25.33l-12.5-44.39-.19.16-10.7,36.96-1.93,7.27Z"/>
    <path class="cls-2" d="M355.01,17.64h48.12c16.02,0,28.65,3.54,37.5,10.55,9.55,7.54,14.62,20.41,14.62,35.78s-5.34,29.62-14.62,36.96c-8.85,6.99-21.47,10.55-37.5,10.55h-16.85v49.77h-35.99V17.64h4.72ZM386.28,80.29h16.67c16.37,0,18.68-6.66,18.68-16.33s-2.32-16.08-18.68-16.08h-16.67v32.4h0Z"/>
    <g>
      <path class="cls-2" d="M468.59,161.4V20.03h20.56l46.75,71.52c10.82,16.56,19.26,31.46,26.18,45.93l.43-.21c-1.73-18.87-2.16-36.08-2.16-58.1V20.03h17.74v141.36h-19.04l-46.31-71.73c-10.17-15.73-19.91-31.88-27.27-47.19l-.65.21c1.08,17.83,1.51,34.81,1.51,58.3v60.41h-17.74Z"/>
      <path class="cls-2" d="M622.57,20.03v141.36h-18.83V20.03h18.83Z"/>
    </g>
    <path class="cls-2" d="M744.51,142.28c-9.9,3.78-18.46,5.35-29.27,5.35-33.16,0-54.77-23.32-54.77-58.83,0-32.3,21.39-55.4,51.35-55.4,12.19,0,21.67,2.56,31.15,8.4l4.83-15.83c-2.79-1.61-5.28-2.68-8.81-3.9-8.34-3.21-17.33-4.7-26.52-4.7-40.43,0-71.02,31.23-71.02,72.51,0,43.43,30.16,74.02,72.73,74.02,6.63,0,12.41-.64,19.47-2.36,5.75-1.39,9.09-2.5,14.77-4.96l-3.89-14.29Z"/>
  </g>
</svg>