<?xml version="1.0" encoding="iso-8859-1"?>
<!-- Generator: Adobe Illustrator 16.0.3, SVG Export Plug-In . SVG Version: 6.00 Build 0)  -->
<!DOCTYPE svg PUBLIC "-//W3C//DTD SVG 1.1//EN" "http://www.w3.org/Graphics/SVG/1.1/DTD/svg11.dtd">
<svg version="1.1" id="&#x5716;&#x5C64;_1" xmlns="http://www.w3.org/2000/svg" xmlns:xlink="http://www.w3.org/1999/xlink" x="0px"
	 y="0px" width="1079px" height="344.5px" viewBox="0 0 1079 344.5" style="enable-background:new 0 0 1079 344.5;"
	 xml:space="preserve">
<g>
	<defs>
		<rect id="SVGID_1_" x="-427" y="-391" width="1920" height="1080"/>
	</defs>
	<clipPath id="SVGID_2_">
		<use xlink:href="#SVGID_1_"  style="overflow:visible;"/>
	</clipPath>
	<path style="clip-path:url(#SVGID_2_);fill:#FF6100;" d="M66.072,75.125c17.909,0,32.426,14.518,32.426,32.426
		c0,17.909-14.517,32.427-32.426,32.427c-17.909,0-32.426-14.518-32.426-32.427C33.646,89.643,48.163,75.125,66.072,75.125"/>
	<path style="clip-path:url(#SVGID_2_);fill:#FF6100;" d="M569.82,86.346h58.691l-8.396,38.777
		c17.868-30.832,42.222-42.491,69.551-42.491c38.539,0,58.86,26.977,45.896,89.814l-19.27,90.393h-58.51l19.619-90.393
		c5.956-32.355,1.752-47.07-16.816-47.07c-22.073,0-44.271,16.746-62.194,99.975l-8.135,37.604h-58.71L569.82,86.346z"/>
	<path style="clip-path:url(#SVGID_2_);fill:#FF6100;" d="M859.675,164.602c11.724-53.652,59.691-81.722,116.186-81.722
		c19.188,0,39.084,2.487,56.494,11.726l-9.593,45.48c-17.411-8.527-31.979-11.726-46.545-11.726
		c-31.623,0-53.298,16.699-58.627,41.573c-5.686,27.358,8.884,47.967,42.637,47.967c17.412,0,33.754-4.265,50.455-12.081
		l-9.949,46.19c-22.74,11.727-43.348,14.212-62.535,14.212C880.28,266.221,846.171,229.625,859.675,164.602"/>
	<path style="clip-path:url(#SVGID_2_);fill:#FF6100;" d="M169.927,128.649h56.605l9.167-42.304H178.45l11.693-54.567h-59.312
		L98.586,183.433c-11.692,54.566,10.794,82.789,54.448,82.789c12.404,0,32.618-3.135,50.556-16.956l10.858-50.148
		c0,0-25.506,13.784-42.627,12.821c-2.038-0.015-3.868-0.337-5.483-0.947c-7.374-2.348-11.695-9.183-8.729-24.071
		c0.164-1.125,0.368-2.277,0.612-3.454L169.927,128.649z"/>
	<polygon style="clip-path:url(#SVGID_2_);fill:#FF6100;" points="850.018,86.346 788.264,86.346 750.042,262.84 811.771,262.84 	
		"/>
	<path style="clip-path:url(#SVGID_2_);fill:#FF6100;" d="M240.473,176.374l19.501-90.043h58.657l-19.27,90.043
		c-6.306,29.43-2.102,44.145,15.416,44.145c15.416,0,32.934-12.963,44.846-71.473l12.263-62.715h57.109l-19.27,90.043
		c-6.376,29.171-2.102,44.145,15.416,44.145c16.117,0,34.335-18.219,44.145-63.766c4.906-22.072,4.555-45.547,1.402-70.422h53.955
		c7.708,24.175,6.221,50.814,0.264,77.792c-14.715,69.372-57.114,102.098-106.866,102.098c-26.977,0-49.641-12.068-58.751-37.644
		c-16.467,23.475-38.299,37.644-66.328,37.644C253.371,266.221,226.509,239.213,240.473,176.374"/>
</g>
</svg>
