<?xml version="1.0" encoding="UTF-8"?>
<svg version="1.1" xmlns="http://www.w3.org/2000/svg" width="256" height="256">
<path d="M0 0 C0.6811084 0.12858398 1.3622168 0.25716797 2.06396484 0.38964844 C19.48113315 3.87751959 37.93957234 11.91700597 48.05859375 27.0859375 C51.21762352 32.87870803 52.75898818 37.4221024 52 44 C49.04335481 45.4783226 46.25770263 45.06032783 43 45 C42.65388672 44.22076172 42.65388672 44.22076172 42.30078125 43.42578125 C37.81240224 33.82810122 30.53965742 28.42550674 20.671875 24.765625 C13.06276047 22.36823275 6.07516632 20.86692404 -1.9296875 20.90234375 C-3.86328125 20.90717773 -3.86328125 20.90717773 -5.8359375 20.91210938 C-7.18229236 20.92046267 -8.52864652 20.92892759 -9.875 20.9375 C-11.24479004 20.9425217 -12.61458185 20.94708343 -13.984375 20.95117188 C-17.3229619 20.96292746 -20.66145815 20.97936036 -24 21 C-23.59297852 21.59748047 -23.18595703 22.19496094 -22.76660156 22.81054688 C-22.2300293 23.60525391 -21.69345703 24.39996094 -21.140625 25.21875 C-20.60985352 26.00185547 -20.07908203 26.78496094 -19.53222656 27.59179688 C-12.35106264 38.87844458 -10.53298447 50.6486526 -13.25 63.625 C-14.49645245 68.71219587 -16.07912747 72.66905108 -19 77 C-11.52236384 74.63656109 -4.34347406 71.74596329 2.875 68.6875 C3.98230469 68.22666016 5.08960938 67.76582031 6.23046875 67.29101562 C13.40350797 64.26080693 20.24109267 60.86647511 27 57 C26.34 56.236875 25.68 55.47375 25 54.6875 C23 52 23 52 23 49 C28.49081754 48.70882908 33.98193236 48.42437268 39.47338867 48.14550781 C41.33220256 48.0502414 43.19093158 47.95330076 45.04956055 47.85449219 C57.71282536 47.18277367 70.3190075 46.86863802 83 47 C82.34462244 50.1779032 81.22117425 52.69473321 79.6640625 55.53515625 C79.18163086 56.41864746 78.69919922 57.30213867 78.20214844 58.21240234 C77.68168945 59.15293457 77.16123047 60.0934668 76.625 61.0625 C76.09422852 62.02881348 75.56345703 62.99512695 75.01660156 63.99072266 C69.82016767 73.40983595 64.4427742 82.72156997 59 92 C54.86281109 90.20953589 53.33679861 87.83902629 51 84 C50.49364014 84.23074219 49.98728027 84.46148437 49.46557617 84.69921875 C44.22570345 87.08274553 38.97570465 89.44271029 33.71777344 91.78613281 C32.04980122 92.53111645 30.38340135 93.27964795 28.71972656 94.03417969 C4.64656962 104.92203905 -21.06100698 113.06131328 -47 118 C-47.88494141 118.17499023 -48.76988281 118.34998047 -49.68164062 118.53027344 C-72.46773341 122.87909311 -99.4345483 123.78720995 -122 118 C-122.66370605 117.83371094 -123.32741211 117.66742188 -124.01123047 117.49609375 C-141.21338747 113.06529729 -158.3156801 105.51353518 -168.58984375 90.52734375 C-173.19803543 82.26834093 -173.17559361 72.87092857 -171.34765625 63.7421875 C-168.76730419 55.25914166 -164.55708213 46.0546273 -157 41 C-157.7287038 44.50950453 -159.11822842 47.54128659 -160.5625 50.8125 C-164.04074631 59.83768721 -165.00739802 69.44185438 -161.0625 78.5 C-155.74670257 87.4537035 -146.6601905 91.97911568 -137 95 C-117.37379696 99.92137418 -97.75480435 98.399664 -78 95 C-81.48617331 92.18654124 -81.48617331 92.18654124 -85.08984375 89.52734375 C-94.85330227 82.4676122 -100.28681926 73.72746431 -103 62 C-104.02733813 55.40723958 -104.07352843 49.59687315 -103 43 C-112.87235756 46.47234645 -122.33922181 50.41376306 -131.70239258 55.10327148 C-132.46575928 55.47911377 -133.22912598 55.85495605 -134.015625 56.2421875 C-134.68883789 56.5810498 -135.36205078 56.91991211 -136.05566406 57.26904297 C-138 58 -138 58 -142 58 C-144.0078125 56.015625 -144.0078125 56.015625 -146.125 53.25 C-146.8984375 52.25355469 -147.671875 51.25710937 -148.46875 50.23046875 C-148.87609375 49.70243652 -149.2834375 49.1744043 -149.703125 48.63037109 C-151.03682992 46.95369913 -152.42552207 45.34390411 -153.84375 43.73828125 C-154.30765137 43.20750977 -154.77155273 42.67673828 -155.24951172 42.12988281 C-156.57009438 40.62506551 -157.89817224 39.12683581 -159.2265625 37.62890625 C-161 35 -161 35 -160.89013672 32.99072266 C-159.65292799 30.2238 -158.26881624 29.76480923 -155.53125 28.51953125 C-154.58056641 28.0822168 -153.62988281 27.64490234 -152.65039062 27.19433594 C-151.09094727 26.51032715 -151.09094727 26.51032715 -149.5 25.8125 C-148.42427734 25.33200195 -147.34855469 24.85150391 -146.24023438 24.35644531 C-100.71963596 4.37018141 -49.72497125 -9.46845027 0 0 Z " fill="#1070A9" transform="translate(173,68)"/>
<path d="M0 0 C1 3 1 3 0.29296875 4.83203125 C-0.07183594 5.48558594 -0.43664063 6.13914062 -0.8125 6.8125 C-5.63361056 15.53227036 -6.8373471 25.25711452 -4.1953125 34.953125 C-0.42949095 43.41973069 6.29239196 47.95581083 14.5 51.75 C33.61342874 59.0715789 54.1258879 57.94746624 74 55 C74.8878418 54.87641113 75.77568359 54.75282227 76.69042969 54.62548828 C95.76075013 51.94341969 114.21120047 47.46570995 132 40 C132.77472656 39.67563965 133.54945313 39.3512793 134.34765625 39.01708984 C136.75666191 37.99978683 139.16039409 36.97098613 141.5625 35.9375 C142.44437988 35.55827393 143.32625977 35.17904785 144.23486328 34.78833008 C147.15789937 33.52859352 150.07920178 32.26491629 153 31 C154.08619629 30.53013672 155.17239258 30.06027344 156.29150391 29.57617188 C159.65492857 28.11841287 163.01538396 26.65401279 166.375 25.1875 C167.42631104 24.73173584 168.47762207 24.27597168 169.56079102 23.80639648 C174.90122383 21.46567414 180.00804184 19.01626768 185 16 C184.01 14.8553125 184.01 14.8553125 183 13.6875 C181 11 181 11 181 8 C186.49081754 7.70882908 191.98193236 7.42437268 197.47338867 7.14550781 C199.33220256 7.0502414 201.19093158 6.95330076 203.04956055 6.85449219 C215.71282536 6.18277367 228.3190075 5.86863802 241 6 C240.34462244 9.1779032 239.22117425 11.69473321 237.6640625 14.53515625 C237.18163086 15.41864746 236.69919922 16.30213867 236.20214844 17.21240234 C235.68168945 18.15293457 235.16123047 19.0934668 234.625 20.0625 C234.09422852 21.02881348 233.56345703 21.99512695 233.01660156 22.99072266 C227.82016767 32.40983595 222.4427742 41.72156997 217 51 C212.86281109 49.20953589 211.33679861 46.83902629 209 43 C208.49364014 43.23074219 207.98728027 43.46148437 207.46557617 43.69921875 C202.22570345 46.08274553 196.97570465 48.44271029 191.71777344 50.78613281 C190.04980122 51.53111645 188.38340135 52.27964795 186.71972656 53.03417969 C162.64656962 63.92203905 136.93899302 72.06131328 111 77 C110.11505859 77.17499023 109.23011719 77.34998047 108.31835938 77.53027344 C85.53226659 81.87909311 58.5654517 82.78720995 36 77 C35.33629395 76.83371094 34.67258789 76.66742188 33.98876953 76.49609375 C16.78661253 72.06529729 -0.3156801 64.51353518 -10.58984375 49.52734375 C-15.19803543 41.26834093 -15.17559361 31.87092857 -13.34765625 22.7421875 C-10.80159003 14.3718582 -6.48082616 6.00806073 0 0 Z " fill="#F9BF05" transform="translate(15,109)"/>
<path d="M0 0 C0.6811084 0.12858398 1.3622168 0.25716797 2.06396484 0.38964844 C19.48113315 3.87751959 37.93957234 11.91700597 48.05859375 27.0859375 C51.21762352 32.87870803 52.75898818 37.4221024 52 44 C49.04335481 45.4783226 46.25770263 45.06032783 43 45 C42.65388672 44.22076172 42.65388672 44.22076172 42.30078125 43.42578125 C37.81240224 33.82810122 30.53965742 28.42550674 20.671875 24.765625 C12.98691485 22.34433619 6.10995252 20.81199444 -1.98046875 21.1484375 C-3.32351743 21.18546471 -4.66662055 21.22055843 -6.00976562 21.25390625 C-8.09308409 21.30908379 -10.17339175 21.37433032 -12.25512695 21.47314453 C-22.5076908 21.93922562 -28.79208018 20.32355646 -37 14 C-47.13075832 8.13720968 -59.25548794 7.13496092 -70.6171875 9.87109375 C-81.58353628 13.80607773 -89.71154235 20.19772397 -96 30 C-96.81195453 31.97305785 -97.61493934 33.9498245 -98.41015625 35.9296875 C-102.08870487 43.38540381 -107.17559562 45.28048765 -114.75 47.9375 C-117.01673051 48.79787431 -119.28237356 49.66111953 -121.546875 50.52734375 C-122.63677734 50.93065918 -123.72667969 51.33397461 -124.84960938 51.74951172 C-128.68157378 53.27053789 -132.27639244 55.10182938 -135.88769531 57.08422852 C-138 58 -138 58 -142 58 C-144.0078125 56.015625 -144.0078125 56.015625 -146.125 53.25 C-146.8984375 52.25355469 -147.671875 51.25710937 -148.46875 50.23046875 C-148.87609375 49.70243652 -149.2834375 49.1744043 -149.703125 48.63037109 C-151.03682992 46.95369913 -152.42552207 45.34390411 -153.84375 43.73828125 C-154.30765137 43.20750977 -154.77155273 42.67673828 -155.24951172 42.12988281 C-156.57009438 40.62506551 -157.89817224 39.12683581 -159.2265625 37.62890625 C-161 35 -161 35 -160.89013672 32.99072266 C-159.65292799 30.2238 -158.26881624 29.76480923 -155.53125 28.51953125 C-154.58056641 28.0822168 -153.62988281 27.64490234 -152.65039062 27.19433594 C-151.61076172 26.73833008 -150.57113281 26.28232422 -149.5 25.8125 C-148.42427734 25.33200195 -147.34855469 24.85150391 -146.24023438 24.35644531 C-100.71963596 4.37018141 -49.72497125 -9.46845027 0 0 Z " fill="#EC7007" transform="translate(173,68)"/>
<path d="M0 0 C10.41242245 8.58930877 15.06408675 18.53532165 17 31.7421875 C17.1715889 34.92475313 16.80631107 37.67164689 16.1640625 40.78515625 C12.904574 39.39528778 11.20917575 37.87300209 9.0390625 35.09765625 C3.80655597 28.8953317 -2.91640201 24.88516572 -9.8359375 20.78515625 C-11.64814086 24.75403138 -12.24722664 28.33534275 -12.7109375 32.66015625 C-13.51611186 38.71481385 -14.39806654 44.00211785 -19.39453125 48.046875 C-21.53896921 50.63298582 -21.55908816 53.11499169 -21.9609375 56.41015625 C-22.75260417 62.70182292 -22.75260417 62.70182292 -23.8359375 63.78515625 C-16.9059375 63.78515625 -9.9759375 63.78515625 -2.8359375 63.78515625 C-6.93006446 66.51457422 -11.19943736 67.55086071 -15.8984375 68.91015625 C-17.25485352 69.32587891 -17.25485352 69.32587891 -18.63867188 69.75 C-28.88281186 72.72292411 -36.46931923 72.87995743 -45.94140625 67.67578125 C-54.64645123 61.98989492 -62.16615757 53.4772758 -64.421875 43.0859375 C-64.7109375 40.59765625 -64.7109375 40.59765625 -64.8359375 36.78515625 C-59.8945913 37.94782594 -58.21034344 40.74564253 -55.4609375 44.68359375 C-53.34162945 47.42442964 -50.88375427 49.44507313 -48.15625 51.55859375 C-47.72054687 51.96335938 -47.28484375 52.368125 -46.8359375 52.78515625 C-46.8359375 53.44515625 -46.8359375 54.10515625 -46.8359375 54.78515625 C-45.5159375 54.78515625 -44.1959375 54.78515625 -42.8359375 54.78515625 C-42.5059375 55.44515625 -42.1759375 56.10515625 -41.8359375 56.78515625 C-39.4017779 57.74056378 -39.4017779 57.74056378 -36.5234375 58.47265625 C-35.55792969 58.74464844 -34.59242187 59.01664062 -33.59765625 59.296875 C-30.88388039 59.77667978 -29.39928745 59.69237512 -26.8359375 58.78515625 C-29.26033995 56.22221652 -31.35141159 54.05049187 -34.4609375 52.34765625 C-37.5320867 50.32716336 -38.33249745 48.07840588 -39.8359375 44.78515625 C-40.4959375 44.45515625 -41.1559375 44.12515625 -41.8359375 43.78515625 C-44.03172649 31.56193088 -37.69787492 23.04354674 -31.8359375 12.78515625 C-40.7459375 12.78515625 -49.6559375 12.78515625 -58.8359375 12.78515625 C-53.85553624 2.82435373 -45.42711018 -2.94202559 -35.2109375 -6.46484375 C-22.74538641 -9.18861574 -10.37473663 -7.46027881 0 0 Z " fill="#00A8E8" transform="translate(139.8359375,89.21484375)"/>
<path d="M0 0 C10.41242245 8.58930877 15.06408675 18.53532165 17 31.7421875 C17.1715889 34.92475313 16.80631107 37.67164689 16.1640625 40.78515625 C12.904574 39.39528778 11.20917575 37.87300209 9.0390625 35.09765625 C3.80655597 28.8953317 -2.91640201 24.88516572 -9.8359375 20.78515625 C-10.4959375 21.77515625 -11.1559375 22.76515625 -11.8359375 23.78515625 C-11.8359375 22.13515625 -11.8359375 20.48515625 -11.8359375 18.78515625 C-11.1759375 18.45515625 -10.5159375 18.12515625 -9.8359375 17.78515625 C-9.39424983 15.42948868 -9.08119235 13.16325237 -8.8359375 10.78515625 C-8.69671875 9.56505859 -8.69671875 9.56505859 -8.5546875 8.3203125 C-8.30699845 6.14271297 -8.0681975 3.96444687 -7.8359375 1.78515625 C-8.7434375 1.80578125 -9.6509375 1.82640625 -10.5859375 1.84765625 C-13.8359375 1.78515625 -13.8359375 1.78515625 -16.0234375 1.09765625 C-16.6215625 0.99453125 -17.2196875 0.89140625 -17.8359375 0.78515625 C-19.33608141 2.11805279 -19.33608141 2.11805279 -20.8359375 3.78515625 C-21.6196875 4.01203125 -22.4034375 4.23890625 -23.2109375 4.47265625 C-26.20751571 5.97094535 -26.81760396 7.04537609 -28.5 9.8671875 C-28.94037598 10.59784424 -29.38075195 11.32850098 -29.83447266 12.08129883 C-30.16495605 12.64357178 -30.49543945 13.20584473 -30.8359375 13.78515625 C-31.73517944 13.7397168 -31.73517944 13.7397168 -32.65258789 13.69335938 C-35.40111768 13.55549543 -38.14977299 13.42030653 -40.8984375 13.28515625 C-41.84138672 13.23746094 -42.78433594 13.18976563 -43.75585938 13.140625 C-48.78992193 12.89506097 -53.79595857 12.72923415 -58.8359375 12.78515625 C-55.68804564 5.3132371 -48.16237091 -1.42178049 -40.7421875 -4.54296875 C-26.86947142 -9.43253261 -12.13628558 -8.72697567 0 0 Z " fill="#44A8C6" transform="translate(139.8359375,89.21484375)"/>
<path d="M0 0 C2.3828125 0.2421875 2.3828125 0.2421875 5.125 0.875 C6.49011719 1.18050781 6.49011719 1.18050781 7.8828125 1.4921875 C8.93082031 1.74355469 8.93082031 1.74355469 10 2 C10.05418326 4.08304538 10.09287551 6.16649768 10.125 8.25 C10.14820313 9.41015625 10.17140625 10.5703125 10.1953125 11.765625 C10.0103949 14.82786046 9.60823023 16.44202751 8 19 C7.34 19 6.68 19 6 19 C5.95101562 20.10859375 5.90203125 21.2171875 5.8515625 22.359375 C5.77650785 23.82294065 5.70096119 25.28648112 5.625 26.75 C5.57859375 27.84441406 5.57859375 27.84441406 5.53125 28.9609375 C5.3251506 32.73942656 5.08487157 35.77946668 3 39 C1.515 38.505 1.515 38.505 0 38 C0 37.34 0 36.68 0 36 C-0.99 35.67 -1.98 35.34 -3 35 C-3 34.34 -3 33.68 -3 33 C-3.66 33 -4.32 33 -5 33 C-5.061875 32.38125 -5.12375 31.7625 -5.1875 31.125 C-5.455625 30.42375 -5.72375 29.7225 -6 29 C-7.65204456 28.29788106 -9.31923769 27.63028587 -11 27 C-11.33 26.01 -11.66 25.02 -12 24 C-12.99 23.67 -13.98 23.34 -15 23 C-15.75 20.3125 -15.75 20.3125 -16 17 C-14.3125 14.5625 -14.3125 14.5625 -12 12 C-11.35471682 10.80237566 -10.73032355 9.59330942 -10.125 8.375 C-7.73984416 4.58681132 -6.05785248 3.6760695 -2 2 C-1.34 1.34 -0.68 0.68 0 0 Z " fill="#93D4F5" transform="translate(122,89)"/>
<path d="M0 0 C4.9413462 1.16266969 6.62559406 3.96048628 9.375 7.8984375 C11.49430805 10.63927339 13.95218323 12.65991688 16.6796875 14.7734375 C17.11539063 15.17820313 17.55109375 15.58296875 18 16 C18 16.66 18 17.32 18 18 C19.32 18 20.64 18 22 18 C22.33 18.66 22.66 19.32 23 20 C29.13473656 22.25335666 35.51570037 23.38827362 42 24 C41.505 25.485 41.505 25.485 41 27 C47.93 27 54.86 27 62 27 C57.90587304 29.72941797 53.63650014 30.76570446 48.9375 32.125 C48.03322266 32.40214844 47.12894531 32.67929688 46.19726562 32.96484375 C35.95312564 35.93776786 28.36661827 36.09480118 18.89453125 30.890625 C10.18948627 25.20473867 2.66977993 16.69211955 0.4140625 6.30078125 C0.125 3.8125 0.125 3.8125 0 0 Z " fill="#6278BA" transform="translate(75,126)"/>
<path d="M0 0 C2.3828125 0.2421875 2.3828125 0.2421875 5.125 0.875 C6.49011719 1.18050781 6.49011719 1.18050781 7.8828125 1.4921875 C8.93082031 1.74355469 8.93082031 1.74355469 10 2 C10.05418326 4.08304538 10.09287551 6.16649768 10.125 8.25 C10.14820313 9.41015625 10.17140625 10.5703125 10.1953125 11.765625 C10.00892712 14.85216691 9.78936323 16.51148161 8 19 C4.28456553 20.23847816 3.15583076 19.56730001 -0.4375 18.1875 C-1.38496094 17.83042969 -2.33242187 17.47335938 -3.30859375 17.10546875 C-5.60380076 16.16273496 -7.80219718 15.14826105 -10 14 C-10.21863671 10.79332827 -10.33122923 8.62759222 -8.8125 5.75 C-6.6885021 3.69924341 -4.75825742 2.99014369 -2 2 C-1.34 1.34 -0.68 0.68 0 0 Z " fill="#F6FBFC" transform="translate(122,89)"/>
<path d="M0 0 C3 3 6 6 9 9 C9.86625 9.804375 9.86625 9.804375 10.75 10.625 C12 12 12 12 12 14 C12.66 14 13.32 14 14 14 C15.35386936 15.65002828 16.68678142 17.3174387 18 19 C18.66 19.33 19.32 19.66 20 20 C20.33 19.34 20.66 18.68 21 18 C20.29066469 21.68854359 18.93065633 24.78223945 17 28 C14.8125 28.875 14.8125 28.875 13 29 C12.67 28.01 12.34 27.02 12 26 C11.34 26 10.68 26 10 26 C9.34 24.35 8.68 22.7 8 21 C7.34 21 6.68 21 6 21 C5.34 19.35 4.68 17.7 4 16 C3.34 16 2.68 16 2 16 C1.34 14.35 0.68 12.7 0 11 C-0.66 11 -1.32 11 -2 11 C-3.14947895 7.44706507 -3.0868937 6.20023331 -1.5625 2.6875 C-1.046875 1.800625 -0.53125 0.91375 0 0 Z " fill="#57C1EF" transform="translate(105,108)"/>
<path d="M0 0 C3.02301316 3.90510818 5.57851799 8.05582647 8.18359375 12.24609375 C15.77609781 23.75730959 26.49404516 29.18018675 39 34 C35.40433073 35.26403575 32.94700656 34.73990566 29.3125 33.75 C28.33925781 33.49734375 27.36601563 33.2446875 26.36328125 32.984375 C25.19345703 32.49710938 25.19345703 32.49710938 24 32 C23.67 31.01 23.34 30.02 23 29 C21.68 29 20.36 29 19 29 C19 28.34 19 27.68 19 27 C18.01 26.67 17.02 26.34 16 26 C16 25.34 16 24.68 16 24 C15.40316406 23.74089844 14.80632812 23.48179687 14.19140625 23.21484375 C11.83741563 21.90986856 10.61714344 20.64525787 8.9375 18.5625 C5.48939499 14.17186354 5.48939499 14.17186354 1 11 C1.33 11.66 1.66 12.32 2 13 C2.039992 14.99960012 2.04346799 17.00047242 2 19 C-0.2249236 15.6626146 -0.39081861 13.99717615 -0.6875 10.0625 C-0.77386719 9.02222656 -0.86023438 7.98195313 -0.94921875 6.91015625 C-0.99415079 4.33520501 -0.77952037 2.432338 0 0 Z " fill="#1E53A4" transform="translate(74,115)"/>
<path d="M0 0 C2.34697415 0.90850612 4.66020329 1.83079511 6.9140625 2.953125 C16.69592847 7.71956151 27.27867931 8.27764151 38 9 C31.95875063 13.02749958 24.13280687 14.17686197 17 13 C10.49468964 10.57167566 4.32053408 7.55497239 0 2 C0 1.34 0 0.68 0 0 Z " fill="#BFC4E2" transform="translate(86,148)"/>
<path d="M0 0 C1.63118783 0.56579947 3.25484494 1.15334233 4.875 1.75 C5.77992187 2.07484375 6.68484375 2.3996875 7.6171875 2.734375 C10.3712819 4.19720547 10.7708892 5.2330715 12 8 C13.99005807 8.38830401 15.9935269 8.70814937 18 9 C19.3327241 9.63608073 20.65204651 10.30059388 21.9609375 10.984375 C27.59410326 13.55403009 32.94709446 13.6651174 39.0625 13.75 C40.11888672 13.77964844 41.17527344 13.80929688 42.26367188 13.83984375 C44.84252138 13.90985776 47.42050303 13.96288954 50 14 C50 14.33 50 14.66 50 15 C37.5253947 17.87518784 22.04735812 16.72914107 10.8125 10.375 C10.15894531 9.94960937 9.50539063 9.52421875 8.83203125 9.0859375 C7.02980299 7.89946848 7.02980299 7.89946848 4.87109375 7.46875 C3 7 3 7 1.25 5.125 C0 3 0 3 0 0 Z " fill="#959DC9" transform="translate(81,141)"/>
<path d="M0 0 C0.11859375 0.5775 0.2371875 1.155 0.359375 1.75 C2.12301931 7.94426295 6.02373679 12.14339601 11 16 C12.38043825 17.7901937 13.6451206 19.62303362 14.88671875 21.51171875 C15.94616763 23.15989263 15.94616763 23.15989263 18 24 C18 24.99 18 25.98 18 27 C16.68 27.33 15.36 27.66 14 28 C13.67 27.01 13.34 26.02 13 25 C12.34 25 11.68 25 11 25 C10.34 23.35 9.68 21.7 9 20 C8.34 20 7.68 20 7 20 C6.34 18.35 5.68 16.7 5 15 C4.34 15 3.68 15 3 15 C2.34 13.35 1.68 11.7 1 10 C0.34 10 -0.32 10 -1 10 C-2.15837626 5.94568308 -1.83691257 3.78187881 0 0 Z " fill="#1EB5EB" transform="translate(104,109)"/>
<path d="M0 0 C2.92879371 0.62759865 5.36095629 1.58622659 8 3 C7.85941524 5.45873768 7.71277001 7.91685175 7.5625 10.375 C7.50352539 11.42300781 7.50352539 11.42300781 7.44335938 12.4921875 C7.11328125 17.7734375 7.11328125 17.7734375 6 20 C5.34 20 4.68 20 4 20 C0.73110147 13.14115041 -0.58179863 7.59570439 0 0 Z " fill="#B6E1F7" transform="translate(120,106)"/>
<path d="M0 0 C1.79296875 0.0390625 1.79296875 0.0390625 4 1 C5.3211345 3.48788924 6.34155863 5.75662176 7.3125 8.375 C7.58900391 9.06078125 7.86550781 9.7465625 8.15039062 10.453125 C10.13551642 15.59345074 10.13551642 15.59345074 9 19 C8.938125 18.38125 8.87625 17.7625 8.8125 17.125 C8.544375 16.42375 8.27625 15.7225 8 15 C6.34795544 14.29788106 4.68076231 13.63028587 3 13 C2.67 12.01 2.34 11.02 2 10 C1.01 9.67 0.02 9.34 -1 9 C-1.625 6.1875 -1.625 6.1875 -2 3 C-1.34 2.01 -0.68 1.02 0 0 Z " fill="#8ED2F5" transform="translate(108,103)"/>
<path d="M0 0 C0.2475 0.556875 0.495 1.11375 0.75 1.6875 C2.22429221 4.41494058 4.02158479 6.61426401 6 9 C10 14 10 14 14 19 C13.67 19.66 13.34 20.32 13 21 C12.1646875 20.3503125 12.1646875 20.3503125 11.3125 19.6875 C9.03704641 17.93465534 9.03704641 17.93465534 6.4375 16.6875 C3.37494428 14.56726912 2.5257879 12.34220207 1 9 C0.34 8.67 -0.32 8.34 -1 8 C-1.125 2.25 -1.125 2.25 0 0 Z " fill="#008DD7" transform="translate(99,125)"/>
<path d="M0 0 C6.03833153 2.23641908 9.46214946 8.0897527 12.0859375 13.66796875 C15.90591063 23.41379763 17.10276775 32.74900721 15 43 C14.67 43 14.34 43 14 43 C13.96261719 41.81664062 13.92523438 40.63328125 13.88671875 39.4140625 C13.28744183 23.81635368 10.52051861 12.13905994 0 0 Z " fill="#6BCDD1" transform="translate(145,88)"/>
<path d="M0 0 C4.9413462 1.16266969 6.62559406 3.96048628 9.375 7.8984375 C11.49430805 10.63927339 13.95218323 12.65991688 16.6796875 14.7734375 C17.11539063 15.17820313 17.55109375 15.58296875 18 16 C18 16.66 18 17.32 18 18 C15.8125 17.9375 15.8125 17.9375 13 17 C11.59903399 15.32315146 10.45573988 13.55657244 9.26953125 11.72265625 C7.56263167 9.40652482 5.56212858 8.24446245 3 7 C2.67 8.32 2.34 9.64 2 11 C1.664061 9.5422647 1.33133376 8.08378894 1 6.625 C0.814375 5.81289062 0.62875 5.00078125 0.4375 4.1640625 C0 2 0 2 0 0 Z " fill="#4B6AB1" transform="translate(75,126)"/>
<path d="M0 0 C0.83402344 0.20496094 1.66804688 0.40992188 2.52734375 0.62109375 C9.03033872 2.17793905 15.33643284 3.43529092 22 4 C21.67 4.99 21.34 5.98 21 7 C13.22027969 7.74486684 7.54518852 6.36345901 1 2 C0.67 1.34 0.34 0.68 0 0 Z " fill="#D5D9E9" transform="translate(92,154)"/>
<path d="M0 0 C0.33 0.99 0.66 1.98 1 3 C0.06244213 4.87511574 -0.88272076 6.74700809 -1.875 8.59375 C-3.87202149 12.86515708 -4.8915205 17.43172087 -6 22 C-6.33 22 -6.66 22 -7 22 C-7 19.36 -7 16.72 -7 14 C-7.99 14.66 -8.98 15.32 -10 16 C-8.69091868 12.44408198 -7.12739559 9.44509001 -5 6.3125 C-4.2265625 5.16201172 -4.2265625 5.16201172 -3.4375 3.98828125 C-2 2 -2 2 0 0 Z " fill="#FAC738" transform="translate(15,109)"/>
<path d="M0 0 C1.32 0 2.64 0 4 0 C3.67 0.99 3.34 1.98 3 3 C9.93 3 16.86 3 24 3 C20.54639557 5.30240295 19.19500616 5.25691777 15.125 5.265625 C13.97515625 5.26820313 12.8253125 5.27078125 11.640625 5.2734375 C10.43921875 5.26570312 9.2378125 5.25796875 8 5.25 C6.19789062 5.26160156 6.19789062 5.26160156 4.359375 5.2734375 C2.63460937 5.26957031 2.63460937 5.26957031 0.875 5.265625 C-0.70667969 5.26224121 -0.70667969 5.26224121 -2.3203125 5.25878906 C-5 5 -5 5 -8 3 C-6.865625 2.87625 -5.73125 2.7525 -4.5625 2.625 C-3.386875 2.41875 -2.21125 2.2125 -1 2 C-0.67 1.34 -0.34 0.68 0 0 Z " fill="#768EBD" transform="translate(113,150)"/>
<path d="M0 0 C5.57852714 3.77900226 9.26716801 7.40075202 13 13 C13.66 13.33 14.32 13.66 15 14 C15 14.66 15 15.32 15 16 C10.59234621 14.6307812 8.60094851 12.76023075 5.8125 9.125 C4.80123047 7.82949219 4.80123047 7.82949219 3.76953125 6.5078125 C2.26865852 4.38074784 1.07195801 2.36380483 0 0 Z " fill="#36BCEF" transform="translate(107,119)"/>
<path d="M0 0 C7.26 0.66 14.52 1.32 22 2 C18.55549263 4.29633824 16.06187717 4.54016485 12 5 C12 4.34 12 3.68 12 3 C9.03 3 6.06 3 3 3 C3 2.34 3 1.68 3 1 C2.01 0.67 1.02 0.34 0 0 Z " fill="#C0BFCD" transform="translate(102,155)"/>
<path d="M0 0 C1.41152344 0.07250977 1.41152344 0.07250977 2.8515625 0.14648438 C3.83640625 0.20255859 4.82125 0.25863281 5.8359375 0.31640625 C6.82851562 0.36861328 7.82109375 0.42082031 8.84375 0.47460938 C11.29978318 0.60449574 13.7554311 0.73946789 16.2109375 0.87890625 C16.2109375 1.20890625 16.2109375 1.53890625 16.2109375 1.87890625 C11.17239644 2.71101901 6.3983713 2.98675965 1.2734375 2.94140625 C0.58958984 2.93689453 -0.09425781 2.93238281 -0.79882812 2.92773438 C-2.46227854 2.91610185 -4.125683 2.89817319 -5.7890625 2.87890625 C-6.1190625 2.21890625 -6.4490625 1.55890625 -6.7890625 0.87890625 C-4.28805676 -0.37159662 -2.78563198 -0.15102824 0 0 Z " fill="#3E6FB2" transform="translate(121.7890625,151.12109375)"/>
<path d="M0 0 C1.63118783 0.56579947 3.25484494 1.15334233 4.875 1.75 C5.77992187 2.07484375 6.68484375 2.3996875 7.6171875 2.734375 C10.32047018 4.17021695 10.96706853 5.17427942 12 8 C8.30099992 7.11223998 4.65449539 6.05418136 1 5 C0.67 3.35 0.34 1.7 0 0 Z " fill="#7F8DC5" transform="translate(81,141)"/>
<path d="M0 0 C6.93998648 2.16163513 13.43117569 4.8936214 20 8 C17.55298453 8.8711597 16.32260403 9.10445676 13.81640625 8.29296875 C13.07261719 7.92816406 12.32882813 7.56335938 11.5625 7.1875 C10.77875 6.81367188 9.995 6.43984375 9.1875 6.0546875 C8.465625 5.70664063 7.74375 5.35859375 7 5 C5.3357865 4.32723284 3.67013418 3.65793165 2 3 C1.34 2.67 0.68 2.34 0 2 C0 1.34 0 0.68 0 0 Z " fill="#A0A8D4" transform="translate(84,146)"/>
<path d="M0 0 C0.33 0 0.66 0 1 0 C1.10957031 0.83402344 1.21914062 1.66804688 1.33203125 2.52734375 C2.29304192 9.34817557 3.59313728 15.5452318 6 22 C3 21 3 21 1.3125 17.75 C-0.70564007 11.98989188 -0.24770065 6.01820833 0 0 Z " fill="#99D6F6" transform="translate(119,106)"/>
<path d="M0 0 C0.33 0 0.66 0 1 0 C1.12117188 0.59167969 1.24234375 1.18335937 1.3671875 1.79296875 C2.26744643 6.03803585 3.20456621 10.02439661 5 14 C4.01 13.34 3.02 12.68 2 12 C2 11.34 2 10.68 2 10 C1.01 9.67 0.02 9.34 -1 9 C-1.625 6.1875 -1.625 6.1875 -2 3 C-1.34 2.01 -0.68 1.02 0 0 Z " fill="#78CBF2" transform="translate(108,103)"/>
<path d="M0 0 C0.99 0.33 1.98 0.66 3 1 C3.6875 3.0625 3.6875 3.0625 4 5 C4.66 5 5.32 5 6 5 C8.1875 7.3125 8.1875 7.3125 10 10 C9.67 10.99 9.34 11.98 9 13 C9 12.34 9 11.68 9 11 C8.401875 10.7525 7.80375 10.505 7.1875 10.25 C4.68373081 8.81927475 3.51927612 7.4308418 2 5 C2 4.34 2 3.68 2 3 C1.34 3 0.68 3 0 3 C0 2.01 0 1.02 0 0 Z " fill="#70CAF3" transform="translate(113,117)"/>
<path d="M0 0 C1.22589844 0.29197266 1.22589844 0.29197266 2.4765625 0.58984375 C3.41628906 0.82380859 3.41628906 0.82380859 4.375 1.0625 C0.91837669 3.36691554 -0.57357881 3.32110135 -4.625 3.0625 C-5.285 2.7325 -5.945 2.4025 -6.625 2.0625 C-6.625 1.4025 -6.625 0.7425 -6.625 0.0625 C-3.99249612 -1.25375194 -2.82320944 -0.68563658 0 0 Z " fill="#174FA1" transform="translate(101.625,159.9375)"/>
<path d="M0 0 C2.375 0.6875 2.375 0.6875 5 2 C6.3125 4.625 6.3125 4.625 7 7 C4.525 6.01 4.525 6.01 2 5 C1.67 6.32 1.34 7.64 1 9 C0.67 6.03 0.34 3.06 0 0 Z " fill="#3A61AC" transform="translate(75,126)"/>
<path d="M0 0 C0.33 0 0.66 0 1 0 C1.18451025 9.41002278 1.18451025 9.41002278 0 14 C-0.33 14 -0.66 14 -1 14 C-1 11.36 -1 8.72 -1 6 C-1.99 6.66 -2.98 7.32 -4 8 C-2.87548273 5.0280615 -1.77706209 2.66559313 0 0 Z " fill="#FAC324" transform="translate(9,117)"/>
<path d="M0 0 C0.99 0 1.98 0 3 0 C3 3.63 3 7.26 3 11 C0.60236815 8.60236815 0.65719414 7.66726502 0.375 4.375 C0.30023438 3.55773437 0.22546875 2.74046875 0.1484375 1.8984375 C0.09945312 1.27195312 0.05046875 0.64546875 0 0 Z " fill="#B0DFF7" transform="translate(116,105)"/>
<path d="M0 0 C6.24675325 6.07792208 6.24675325 6.07792208 8 9 C7.67 9.99 7.34 10.98 7 12 C7 11.34 7 10.68 7 10 C6.34 10 5.68 10 5 10 C5 9.34 5 8.68 5 8 C4.01 8 3.02 8 2 8 C0.23537317 4.91190305 0 3.76687864 0 0 Z " fill="#5EC5F1" transform="translate(105,108)"/>
<path d="M0 0 C0.33 0 0.66 0 1 0 C1.1546875 1.175625 1.1546875 1.175625 1.3125 2.375 C1.77595022 5.33045181 1.77595022 5.33045181 5 7 C4.67 8.98 4.34 10.96 4 13 C1.76362469 10.76362469 1.16152029 8.90380073 0 6 C-0.66 5.34 -1.32 4.68 -2 4 C-1.34 2.68 -0.68 1.36 0 0 Z " fill="#BAE2F6" transform="translate(111,98)"/>
<path d="M0 0 C8.57142857 1 8.57142857 1 12 2 C12 2.66 12 3.32 12 4 C10.56138706 3.91253716 9.12402492 3.80434652 7.6875 3.6875 C6.88699219 3.62949219 6.08648437 3.57148438 5.26171875 3.51171875 C2.63727666 2.91793306 1.69179328 2.04219706 0 0 Z " fill="#4566AF" transform="translate(101,148)"/>
<path d="M0 0 C0.99 0.33 1.98 0.66 3 1 C3 1.66 3 2.32 3 3 C4.32 3.66 5.64 4.32 7 5 C5.1875 5.6875 5.1875 5.6875 3 6 C1.25 4.75 1.25 4.75 0 3 C0 2.01 0 1.02 0 0 Z " fill="#909ACC" transform="translate(81,141)"/>
<path d="M0 0 C0.66 0.33 1.32 0.66 2 1 C2 1.99 2 2.98 2 4 C2.66 4 3.32 4 4 4 C4.66 5.98 5.32 7.96 6 10 C3.03595495 7.19195732 0.55500981 4.81684226 -1 1 C-0.67 0.67 -0.34 0.34 0 0 Z " fill="#44BFF0" transform="translate(105,112)"/>
<path d="M0 0 C0.66 0 1.32 0 2 0 C2.99 1.98 3.98 3.96 5 6 C3.68 6.33 2.36 6.66 1 7 C0.67 4.69 0.34 2.38 0 0 Z " fill="#7686C1" transform="translate(79,136)"/>
<path d="M0 0 C3.36591866 1.44253657 5.51047079 3.33264727 8 6 C7.67 6.99 7.34 7.98 7 9 C5.83037314 7.69013727 4.66437056 6.3770374 3.5 5.0625 C2.8503125 4.33160156 2.200625 3.60070312 1.53125 2.84765625 C0 1 0 1 0 0 Z " fill="#58C7C8" transform="translate(145,88)"/>
<path d="M0 0 C3.37503669 1.1858237 5.64722731 2.27573689 8 5 C3.48279689 5.36625971 3.48279689 5.36625971 1.1875 3.625 C0 2 0 2 0 0 Z " fill="#B8BDDF" transform="translate(86,148)"/>
</svg>
